<svg xmlns="http://www.w3.org/2000/svg" viewBox="0 0 128 128"><defs><style>.cls-1{fill:#222c2e;}</style></defs><title>Asset 52</title><g id="Layer_2" data-name="Layer 2"><g id="Layer_1-2" data-name="Layer 1"><path class="cls-1" d="M62.9,108.87a1.56,1.56,0,0,0,2.21,0l6.24-6.24a1.56,1.56,0,0,0,0-2.21L65.1,94.18a1.56,1.56,0,0,0-2.21,2.21L66.48,100H39A10.94,10.94,0,0,1,28.1,89V57.76a1.56,1.56,0,0,0-3.12,0V89a14.07,14.07,0,0,0,14,14H66.48l-3.58,3.58A1.56,1.56,0,0,0,62.9,108.87Z"/><path class="cls-1" d="M62.9,33.95a1.56,1.56,0,1,0,2.21-2.21l-3.58-3.58H89A10.94,10.94,0,0,1,99.9,39.09V70.24a1.56,1.56,0,1,0,3.12,0V39.09A14.07,14.07,0,0,0,89,25H61.52l3.58-3.58a1.56,1.56,0,0,0-2.21-2.21l-6.24,6.24a1.56,1.56,0,0,0,0,2.21Z"/><path class="cls-1" d="M11.17,38.09l15.37-4.38,15.37,4.38a1.56,1.56,0,1,0,.85-3L31.37,31.85l1.88-1.26a7.1,7.1,0,0,0,3.17-5.91V13.77a4.34,4.34,0,0,0-4.34-4.34H21a4.34,4.34,0,0,0-4.34,4.34V24.68a7.1,7.1,0,0,0,3.17,5.91l1.88,1.26L10.31,35.09a1.56,1.56,0,1,0,.85,3ZM21.55,28a4,4,0,0,1-1.78-3.32V13.77A1.22,1.22,0,0,1,21,12.55h11.1a1.22,1.22,0,0,1,1.22,1.21V24.68A4,4,0,0,1,31.52,28l-2.77,1.85a4,4,0,0,1-4.43,0Z"/><path class="cls-1" d="M26.54,53.07A26.54,26.54,0,1,0,0,26.54,26.57,26.57,0,0,0,26.54,53.07Zm0-50A23.41,23.41,0,1,1,3.12,26.54,23.44,23.44,0,0,1,26.54,3.12Z"/><path class="cls-1" d="M106.3,106.78l1.88-1.26a7.1,7.1,0,0,0,3.17-5.91V88.7A4.34,4.34,0,0,0,107,84.36H95.91a4.34,4.34,0,0,0-4.34,4.34V99.6a7.1,7.1,0,0,0,3.17,5.91l1.88,1.26L85.24,110a1.56,1.56,0,1,0,.85,3l15.37-4.38L116.83,113a1.56,1.56,0,1,0,.85-3Zm-7.05-2-2.77-1.85A4,4,0,0,1,94.7,99.6V88.7a1.22,1.22,0,0,1,1.22-1.21H107a1.22,1.22,0,0,1,1.22,1.21V99.6a4,4,0,0,1-1.78,3.32l-2.77,1.85A4,4,0,0,1,99.25,104.77Z"/><path class="cls-1" d="M101.46,74.93A26.54,26.54,0,1,0,128,101.46,26.57,26.57,0,0,0,101.46,74.93Zm0,50a23.41,23.41,0,1,1,23.41-23.41A23.44,23.44,0,0,1,101.46,124.88Z"/></g></g></svg>