<svg xmlns="http://www.w3.org/2000/svg" viewBox="0 0 128 128"><defs><style>.cls-1{fill:#222c2e;}</style></defs><title>Asset 9</title><g id="Layer_2" data-name="Layer 2"><g id="Layer_1-2" data-name="Layer 1"><path class="cls-1" d="M30.4,43.48a1.57,1.57,0,0,0,1.52.07l18.73-9.37a1.56,1.56,0,0,0,0-2.79L31.91,22a1.56,1.56,0,0,0-2.26,1.4V42.15A1.58,1.58,0,0,0,30.4,43.48Zm2.38-17.54,13.68,6.84L32.78,39.62Z"/><path class="cls-1" d="M123.32,0H4.68A4.69,4.69,0,0,0,0,4.68V92.1a4.69,4.69,0,0,0,4.68,4.68H50v21.85H32.78a1.56,1.56,0,0,0-1.56,1.56v6.24A1.56,1.56,0,0,0,32.78,128H95.22a1.56,1.56,0,0,0,1.56-1.56V120.2a1.56,1.56,0,0,0-1.56-1.56H78V96.78h45.27A4.69,4.69,0,0,0,128,92.1V4.68A4.69,4.69,0,0,0,123.32,0ZM93.66,121.76v3.12H34.34v-3.12ZM57.76,103a1.56,1.56,0,0,0,1.56-1.56V96.78h9.37v4.68a1.56,1.56,0,0,0,3.12,0V96.78h3.12v21.85H53.07V96.78H56.2v4.68A1.56,1.56,0,0,0,57.76,103ZM124.88,92.1a1.56,1.56,0,0,1-1.56,1.56H4.68A1.56,1.56,0,0,1,3.12,92.1V4.68A1.56,1.56,0,0,1,4.68,3.12H123.32a1.56,1.56,0,0,1,1.56,1.56Z"/><path class="cls-1" d="M120.2,6.24H7.8A1.56,1.56,0,0,0,6.24,7.8V76.49A1.56,1.56,0,0,0,7.8,78H120.2a1.56,1.56,0,0,0,1.56-1.56V7.8A1.56,1.56,0,0,0,120.2,6.24ZM93.66,74.93H71.8V65.56H93.66Zm25,0H96.78V64a1.56,1.56,0,0,0-1.56-1.56h-25A1.56,1.56,0,0,0,68.68,64V74.93H9.37V9.37H118.63Z"/><path class="cls-1" d="M70.24,34.34h25a1.56,1.56,0,0,0,1.56-1.56V14a1.56,1.56,0,0,0-1.56-1.56h-25A1.56,1.56,0,0,0,68.68,14V32.78A1.56,1.56,0,0,0,70.24,34.34ZM71.8,15.61H93.66V31.22H71.8Z"/><path class="cls-1" d="M70.24,59.32h25a1.56,1.56,0,0,0,1.56-1.56V39a1.56,1.56,0,0,0-1.56-1.56h-25A1.56,1.56,0,0,0,68.68,39V57.76A1.56,1.56,0,0,0,70.24,59.32ZM71.8,40.59H93.66V56.2H71.8Z"/><path class="cls-1" d="M101.46,15.61h6.24a1.56,1.56,0,0,0,0-3.12h-6.24a1.56,1.56,0,0,0,0,3.12Z"/><path class="cls-1" d="M101.46,21.85H114a1.56,1.56,0,0,0,0-3.12H101.46a1.56,1.56,0,0,0,0,3.12Z"/><path class="cls-1" d="M101.46,40.59h6.24a1.56,1.56,0,0,0,0-3.12h-6.24a1.56,1.56,0,0,0,0,3.12Z"/><path class="cls-1" d="M101.46,46.83H114a1.56,1.56,0,0,0,0-3.12H101.46a1.56,1.56,0,0,0,0,3.12Z"/><path class="cls-1" d="M101.46,65.56h6.24a1.56,1.56,0,0,0,0-3.12h-6.24a1.56,1.56,0,0,0,0,3.12Z"/><path class="cls-1" d="M101.46,71.8H114a1.56,1.56,0,0,0,0-3.12H101.46a1.56,1.56,0,0,0,0,3.12Z"/><path class="cls-1" d="M14,59.32H64a1.56,1.56,0,0,0,1.56-1.56V14A1.56,1.56,0,0,0,64,12.49H14A1.56,1.56,0,0,0,12.49,14V57.76A1.56,1.56,0,0,0,14,59.32Zm1.56-43.71H62.44V56.2H15.61Z"/><path class="cls-1" d="M57.76,50H20.29a1.56,1.56,0,1,0,0,3.12H57.76a1.56,1.56,0,0,0,0-3.12Z"/><path class="cls-1" d="M14,65.56H26.54a1.56,1.56,0,0,0,0-3.12H14a1.56,1.56,0,0,0,0,3.12Z"/><path class="cls-1" d="M64,62.44H51.51a1.56,1.56,0,0,0,0,3.12H64a1.56,1.56,0,0,0,0-3.12Z"/><path class="cls-1" d="M14,71.8H51.51a1.56,1.56,0,0,0,0-3.12H14a1.56,1.56,0,0,0,0,3.12Z"/></g></g></svg>